<?xml version="1.0" standalone="no"?>
<!DOCTYPE svg PUBLIC "-//W3C//DTD SVG 20010904//EN"
 "http://www.w3.org/TR/2001/REC-SVG-20010904/DTD/svg10.dtd">
<svg version="1.0" xmlns="http://www.w3.org/2000/svg"
 width="2000.000000pt" height="2000.000000pt" viewBox="0 0 2000.000000 2000.000000"
 preserveAspectRatio="xMidYMid meet">

<g transform="translate(0.000000,2000.000000) scale(0.100000,-0.100000)"
fill="#000000" stroke="none">
<path d="M9470 19319 c-1596 -95 -3107 -578 -4450 -1423 -402 -253 -821 -569
-1210 -910 -165 -145 -559 -535 -722 -715 -1132 -1249 -1901 -2764 -2232
-4396 -131 -648 -186 -1200 -186 -1875 0 -781 80 -1462 260 -2206 235 -971
635 -1917 1174 -2774 512 -813 1185 -1577 1956 -2220 265 -221 658 -506 960
-696 1155 -727 2448 -1191 3800 -1363 641 -82 1362 -94 2030 -35 1452 128
2879 611 4130 1398 940 592 1818 1404 2490 2301 910 1216 1506 2618 1745 4105
121 757 148 1559 79 2340 -128 1452 -611 2879 -1398 4130 -512 813 -1185 1577
-1956 2220 -708 590 -1569 1102 -2456 1460 -946 382 -1920 598 -2979 660 -196
11 -836 11 -1035 -1z m801 -1989 c665 -27 1263 -126 1871 -309 1401 -422 2677
-1287 3604 -2441 163 -203 189 -240 178 -255 -12 -17 -973 -849 -986 -854 -5
-2 -17 7 -26 20 -38 56 -256 322 -338 414 -447 502 -966 929 -1539 1265 -195
114 -606 315 -816 398 -565 225 -1147 360 -1774 414 -180 15 -721 15 -895 0
-548 -49 -990 -140 -1479 -307 -1077 -367 -2036 -1047 -2770 -1965 -178 -223
-370 -506 -526 -775 -134 -231 -335 -656 -421 -888 l-17 -49 3830 -3830 3830
-3830 39 12 c89 28 380 147 526 215 1269 591 2326 1668 2918 2975 148 327 315
812 375 1087 l7 33 -1599 2 -1598 3 -3 668 -2 667 2340 0 c1865 0 2340 -3
2340 -12 -14 -711 -103 -1340 -276 -1953 -473 -1672 -1538 -3132 -2999 -4110
-732 -490 -1456 -808 -2365 -1038 l-95 -25 -4371 4370 -4371 4370 47 187 c330
1295 987 2449 1935 3396 1310 1310 3040 2073 4860 2144 279 11 308 11 566 1z
m-4141 -10890 c3859 -3822 3805 -3768 3800 -3773 -16 -12 -549 30 -805 64
-2216 292 -4053 1405 -5235 3175 -368 550 -648 1118 -855 1737 -230 687 -343
1320 -370 2067 l-5 165 82 -81 c46 -45 1570 -1554 3388 -3354z"/>
</g>
</svg>
